<?xml version="1.0" encoding="utf-8"?>
<!-- Generator: Adobe Illustrator 18.1.0, SVG Export Plug-In . SVG Version: 6.00 Build 0)  -->
<svg version="1.1" id="Layer_1" xmlns="http://www.w3.org/2000/svg" xmlns:xlink="http://www.w3.org/1999/xlink" x="0px" y="0px"
	 viewBox="0 0 300 300" enable-background="new 0 0 300 300" xml:space="preserve">
<g>
	<path fill="#D8505C" d="M150.2,91.7l-1,0.1l-4.3,22.8l18.3-17.5L144,119.9l-1.4,7.4l26.8-24.4c-4-7.3-7.7-12.7-9.3-15
		C156.8,88.8,151.8,90.3,150.2,91.7z"/>
	<polygon fill="#D8505C" points="140.9,86.9 160.6,77.1 161.8,68.9 137.5,85.1 	"/>
	<path fill="#D8505C" d="M140.1,140.4l35.9-24c-1.8-4.2-3.8-8.1-5.7-11.7l-29,29L140.1,140.4z"/>
	<polygon fill="#D8505C" points="159.3,86.3 160.3,79 141.8,87.4 148.8,90.9 	"/>
	<path fill="#D8505C" d="M179.5,125.2c-1-3-2.1-5.9-3.4-8.7l-36.8,28.1l-0.6,3.4L179.5,125.2z"/>
	<polygon fill="#D8505C" points="162.1,66.3 163,59.9 142.2,78.5 	"/>
	<path fill="#D8505C" d="M135.1,167.2l-4.6,24.4l53.3-46.6c-0.2-3.1-0.7-6.2-1.4-9.2L135.1,167.2z"/>
	<path fill="#D8505C" d="M131,81.8l3.7,1.9l28.8-26.6l1.1-8C144.4,57.2,131,81.8,131,81.8z"/>
	<path fill="#D8505C" d="M136,162.5l-0.1,1.7l46-30.8c-0.7-2.7-1.5-5.4-2.3-8L137.8,153L136,162.5z"/>
	<path fill="#A79482" d="M135.6,238.6c13.5-17,27.6-66.8,27.6-66.8l1.1-4.2l-20,17.1l-9.6,32.4l-8.1-5.4l-0.8,14.3L135.6,238.6z"/>
	<path fill="#A79482" d="M126.6,286.5c37-35.3,49.6-130.9,49.6-130.9l-52,129.2L126.6,286.5z"/>
	<path fill="#A79482" d="M139,90.3l-8.5-5.4c0,0-22,37.2-22.9,62.7l1.8,0.4C109.5,148.1,134.1,95.7,139,90.3z"/>
	<path fill="#A79482" d="M221.7,14.4l-0.9-1.6c-24.6,7.1-53.5,35.7-53.5,35.7l-1,14.5C170.4,56.9,221.7,14.4,221.7,14.4z"/>
	<polygon fill="#00A9DE" points="124.8,243.5 125.7,226 126.5,211.7 128.3,177.3 124.1,176.1 120.6,237.2 114.5,235.4 114.4,236 
		107.3,233.4 74.4,223.8 72.6,227.8 	"/>
	<polygon fill="#FFC03B" points="69.7,219.5 68.5,222.1 74.4,223.8 107.3,233.4 	"/>
	<polygon fill="#FFC03B" points="114.5,235.4 120.6,237.2 124.1,176.1 124.2,173 121.8,172.3 	"/>
	<path fill="#6EC829" d="M107.3,233.4l7.1,2.6l0.1-0.5l7.3-63.1l0.2-1.8l-29.6-10.3l-29.1,56.9l6.4,2.3L107.3,233.4z M113,175.7
		c-1.5,0-2.7-1.2-2.7-2.7c0-1.5,1.2-2.7,2.7-2.7s2.7,1.2,2.7,2.7C115.7,174.5,114.5,175.7,113,175.7z M101.6,167.6
		c0,1.5-1.2,2.7-2.7,2.7c-1.5,0-2.7-1.2-2.7-2.7c0-1.5,1.2-2.7,2.7-2.7C100.4,164.9,101.6,166.1,101.6,167.6z"/>
	<circle fill="#FFFFFE" cx="98.9" cy="167.6" r="2.7"/>
	<path fill="#FFFFFE" d="M113,170.3c-1.5,0-2.7,1.2-2.7,2.7c0,1.5,1.2,2.7,2.7,2.7s2.7-1.2,2.7-2.7
		C115.7,171.5,114.5,170.3,113,170.3z"/>
	<path fill="#A79482" d="M105.9,142.8c-5.8,4.5-6.3,17.7-6.3,17.7l2.9,1.6C99.6,154.6,105.9,142.8,105.9,142.8z"/>
	<path fill="#A79482" d="M118.2,166.1c2.7-14.8-3.8-22-3.8-22c2.7,8.1,2.5,21.1,2.5,21.1L118.2,166.1z"/>
	<path fill="#826A52" d="M133.5,66.3c0.5,0.2,1,0.3,1.6,0.3c5.4,0,14.3-9.5,15.3-17.3c1-7.8-0.7-18.4-5.1-19.4
		c-4.4-1-10.2,8.5-11.9,16.3c-1.7,7.8-5.1,7.1-5.1,7.1S129.3,67.4,133.5,66.3z"/>
</g>
</svg>
